<svg width="59" height="73" viewBox="0 0 59 73" fill="none" xmlns="http://www.w3.org/2000/svg">
<path fill-rule="evenodd" clip-rule="evenodd" d="M58.34 21.5451C57.7735 20.7923 56.8861 20.3497 55.944 20.3501H17.274L14.799 12.9651H3.05798C1.40113 12.9651 0.0579834 14.3082 0.0579834 15.9651C0.0579834 17.6219 1.40113 18.9651 3.05798 18.9651H10.482L23.982 59.2501H49.141C50.7978 59.2501 52.141 57.9069 52.141 56.2501C52.141 54.5932 50.7978 53.2501 49.141 53.2501H28.299L26.573 48.1011H49.693C51.031 48.101 52.2074 47.2151 52.577 45.9291L58.827 24.1791C59.0866 23.2733 58.9063 22.2982 58.34 21.5451ZM50.559 31.2261H45.749V26.3501H51.96L50.559 31.2261ZM32.942 26.3501V31.2251H39.749V26.3501H32.942ZM39.749 37.2261V42.1011H32.942V37.2261H39.749ZM26.942 31.2251V26.3501H19.285L20.919 31.2251H26.942ZM22.929 37.2261H26.942V42.1011H24.563L22.929 37.2261ZM45.749 37.2261V42.1011H47.434L48.835 37.2261H45.749Z" fill="white"/>
<path d="M27.406 72.8751C30.5988 72.8751 33.187 70.2869 33.187 67.0941C33.187 63.9014 30.5988 61.3131 27.406 61.3131C24.2132 61.3131 21.625 63.9014 21.625 67.0941C21.625 70.2869 24.2132 72.8751 27.406 72.8751Z" fill="white"/>
<path d="M44.844 72.8751C48.0367 72.8751 50.625 70.2869 50.625 67.0941C50.625 63.9014 48.0367 61.3131 44.844 61.3131C41.6512 61.3131 39.063 63.9014 39.063 67.0941C39.063 70.2869 41.6512 72.8751 44.844 72.8751Z" fill="white"/>
<path d="M29.335 10.6991L36.882 16.1911C37.3178 16.5093 37.8644 16.6365 38.396 16.5433C38.9276 16.4501 39.3984 16.1446 39.7 15.6971C40.346 14.7611 40.13 13.4651 39.22 12.8021L36.847 11.0761L46.283 5.98605L50.911 18.0001H55.258L49.214 2.30905C49.007 1.76572 48.5792 1.33574 48.037 1.12605C47.4997 0.920788 46.8995 0.960606 46.394 1.23505L33.146 8.38205L30.124 6.18305C29.2551 5.54916 28.0396 5.72205 27.382 6.57305L18.901 17.3711C18.7308 17.5555 18.5937 17.7679 18.496 17.9991H23.602L29.335 10.6991Z" fill="white"/>
</svg>
